<?xml version="1.0" encoding="UTF-8"?>
<svg version="1.1" xmlns="http://www.w3.org/2000/svg" width="1024" height="1024">
<path d="M0 0 C337.92 0 675.84 0 1024 0 C1024 337.92 1024 675.84 1024 1024 C686.08 1024 348.16 1024 0 1024 C0 686.08 0 348.16 0 0 Z " fill="#E4EBF0" transform="translate(0,0)"/>
<path d="M0 0 C1.03382813 -0.01224609 2.06765625 -0.02449219 3.1328125 -0.03710938 C19.70117515 -0.06840981 35.25311486 4.73621951 47.46875 16.28515625 C56.35664289 25.68708772 60.56340551 36.12605032 60.3203125 49.02734375 C60.29710937 49.74019531 60.27390625 50.45304687 60.25 51.1875 C58.8578125 49.9190625 58.8578125 49.9190625 57.4375 48.625 C52.71501632 44.59081354 47.61676502 41.29912364 42.25 38.1875 C41.62738281 37.82140625 41.00476563 37.4553125 40.36328125 37.078125 C32.66331006 33.40982412 21.86115492 33.97920185 13.76171875 36.1015625 C2.13324309 40.6820294 -5.82823808 47.62672177 -11.07421875 59.078125 C-16.18348216 72.7745364 -13.80621681 86.4437618 -8.3125 99.640625 C-1.19711398 113.80297987 8.93359456 123.88871324 22.25 132.1875 C23.35472656 132.89648438 24.45945312 133.60546875 25.59765625 134.3359375 C53.19209109 151.02424447 88.72884133 151.41544187 119.25 144.1875 C125.8819218 142.48241222 132.45980485 140.63365781 138.55859375 137.47265625 C139.44675781 137.04855469 140.33492187 136.62445313 141.25 136.1875 C141.91 136.5175 142.57 136.8475 143.25 137.1875 C134.62567782 143.51075574 125.87187324 149.37449542 115.55078125 152.47265625 C112.95870749 153.27800344 110.46556964 154.26264233 107.9375 155.25 C102.15427912 157.38798959 96.34557371 158.37901204 90.25 159.1875 C142.90580547 161.91630374 198.32848761 136.67085713 236.875 102.1875 C238.33588897 100.85696728 239.79519512 99.52468236 241.25 98.1875 C241.58 98.8475 241.91 99.5075 242.25 100.1875 C220.84845375 131.76898528 192.33764395 152.85133997 156.25 165.1875 C155.09757813 165.58582031 153.94515625 165.98414063 152.7578125 166.39453125 C108.15573496 180.35353557 57.76554014 178.92806738 14.25 162.1875 C27.92983818 169.1003118 41.36053237 175.40989599 56.25 179.1875 C57.02408203 179.39487793 57.79816406 179.60225586 58.59570312 179.81591797 C82.40727017 185.97324264 111.31981295 185.80094362 135.25 180.1875 C136.5793457 179.90543701 136.5793457 179.90543701 137.93554688 179.61767578 C180.47464294 170.59140236 220.04958156 149.22906563 244.87573242 112.75830078 C245.95288874 111.20068473 247.09625461 109.68926731 248.25 108.1875 C248.91 108.1875 249.57 108.1875 250.25 108.1875 C250.33121094 107.52363281 250.41242188 106.85976563 250.49609375 106.17578125 C251.49807812 102.20418518 253.33633454 98.94165441 255.3125 95.375 C255.68955078 94.68212891 256.06660156 93.98925781 256.45507812 93.27539062 C257.38083852 91.57621015 258.31462312 89.88140575 259.25 88.1875 C259.58 88.1875 259.91 88.1875 260.25 88.1875 C259.53488144 98.66768573 258.05663405 109.51180499 253.9921875 119.25390625 C253.09494518 121.59145861 252.49449652 123.94921869 251.875 126.375 C249.18156734 136.42677961 245.37272043 145.42168919 239.96484375 154.30859375 C237.47929541 158.48137081 235.35091053 162.81140986 233.25 167.1875 C232.59 167.1875 231.93 167.1875 231.25 167.1875 C231.15332031 167.74695313 231.05664062 168.30640625 230.95703125 168.8828125 C222.90887215 195.11714328 186.6300816 219.30968757 163.81201172 231.48876953 C146.0974358 240.65450349 127.82258631 246.52307944 108.25 250.1875 C107.05246094 250.414375 105.85492187 250.64125 104.62109375 250.875 C59.24431397 257.92382016 10.86582617 246.28709719 -26.47265625 219.58203125 C-32.46118003 215.13978773 -38.06522098 210.26001021 -43.54296875 205.20703125 C-45.46482152 203.44845093 -47.42647489 201.77930225 -49.4375 200.125 C-74.09102287 179.1147028 -89.98587546 146.21150143 -92.75 114.1875 C-93.98528562 93.66364374 -92.25447233 72.77087127 -82.75 54.1875 C-82.28722656 53.25035156 -81.82445312 52.31320312 -81.34765625 51.34765625 C-78.09918399 45.06612767 -74.30678521 39.58220645 -69.75 34.1875 C-69.10546875 33.39730469 -68.4609375 32.60710937 -67.796875 31.79296875 C-50.52368602 11.48097801 -26.65717363 0.01637419 0 0 Z " fill="#2679B7" transform="translate(433.75,351.8125)"/>
<path d="M0 0 C20.83880488 1.15771138 20.83880488 1.15771138 27.8125 2.8125 C28.60470947 2.99208252 29.39691895 3.17166504 30.21313477 3.35668945 C32.48145577 3.88259347 34.74126017 4.43452821 37 5 C38.11632812 5.27585937 39.23265625 5.55171875 40.3828125 5.8359375 C63.40736334 12.2545463 85.21479563 24.93486804 100 44 C100 44.66 100 45.32 100 46 C102.31482996 43.75750848 104.54989894 41.55320303 106.5859375 39.05078125 C122.33482906 19.8976533 147.47989418 9.00022596 171.14453125 3.84375 C173.25481163 3.38192572 175.36259977 2.90284408 177.44921875 2.34375 C185.63171376 0.1574645 193.21065885 0.48829673 202 0 C202 44.55 202 89.1 202 135 C193.585 135.99 193.585 135.99 185 137 C181.9507265 137.52409388 179.0000838 138.05227153 176 138.75 C175.25983643 138.92063965 174.51967285 139.0912793 173.75708008 139.26708984 C149.71616976 145.04956546 126.92421961 155.95031945 108.36132812 172.32006836 C105.71048822 174.64707458 103.27004145 176.63224228 100 178 C99.58492188 177.53851563 99.16984375 177.07703125 98.7421875 176.6015625 C77.34910271 153.9553263 47.40936177 144.22454773 18 137 C18.50493072 127.91124708 21.63307409 120.8496971 28.3125 114.5625 C35.47703003 108.73911352 41.46426172 107.40023674 50.69140625 107.65625 C62.05312595 108.83668841 70.67343047 114.68988994 77.8125 123.375 C80.95661709 127.62321402 83.12480183 132.07323711 85 137 C87.43974448 134.56025552 87.98405923 132.5806266 89.0625 129.3125 C89.57490234 127.79076172 89.57490234 127.79076172 90.09765625 126.23828125 C93.8418461 112.80134019 93.03007784 99.56266217 87 87 C78.33857915 71.84251352 64.55521662 62.20007473 48 57 C39.8235305 54.93872601 31.83285157 54.72313771 23.4375 54.8125 C21.7059668 54.8134668 21.7059668 54.8134668 19.93945312 54.81445312 C13.16525659 54.84903496 6.80101063 55.31989894 0 56 C0 37.52 0 19.04 0 0 Z " fill="#2693C9" transform="translate(411,288)"/>
<path d="M0 0 C0.66 0.33 1.32 0.66 2 1 C1.50371094 1.33128906 1.00742187 1.66257812 0.49609375 2.00390625 C-6.8545815 7.56921825 -9.63500608 14.69490863 -13 23 C-13.3403125 23.78375 -13.680625 24.5675 -14.03125 25.375 C-23.08057386 48.54126909 -17.35215681 77.90327423 -7.89794922 99.98486328 C5.69428242 130.48793015 29.23429369 155.69412001 59 171 C59 171.66 59 172.32 59 173 C60.0828125 173.1546875 60.0828125 173.1546875 61.1875 173.3125 C64.27432446 174.06705709 66.29795933 175.35241423 69 177 C70.98451771 177.71143088 72.98202112 178.38991336 75 179 C75 179.66 75 180.32 75 181 C75.82757813 181.10699219 76.65515625 181.21398437 77.5078125 181.32421875 C80.72724827 181.94721918 83.63625652 182.88371322 86.70605469 184.01879883 C128.83036164 199.43371575 180.05246488 195.44247311 220.58984375 176.984375 C223.85704844 175.41654883 227.05355302 173.73768462 230.22363281 171.98242188 C231.97778059 171.01228847 233.75060503 170.07617739 235.5234375 169.140625 C254.21161084 158.97761838 269.7525918 144.78299907 284.36328125 129.4765625 C286 128 286 128 288 128 C288.37520705 132.97333261 287.46478986 135.56515032 284.8125 139.75 C281.55883874 145.04050612 278.68687436 150.40337691 276 156 C275.34 156 274.68 156 274 156 C273.90332031 156.55945313 273.80664062 157.11890625 273.70703125 157.6953125 C265.65887215 183.92964328 229.3800816 208.12218757 206.56201172 220.30126953 C188.8474358 229.46700349 170.57258631 235.33557944 151 239 C149.80246094 239.226875 148.60492187 239.45375 147.37109375 239.6875 C101.99431397 246.73632016 53.61582617 235.09959719 16.27734375 208.39453125 C10.28881997 203.95228773 4.68477902 199.07251021 -0.79296875 194.01953125 C-2.71482152 192.26095093 -4.67647489 190.59180225 -6.6875 188.9375 C-31.34102287 167.9272028 -47.23587546 135.02400143 -50 103 C-51.23528562 82.47614374 -49.50447233 61.58337127 -40 43 C-39.53722656 42.06285156 -39.07445312 41.12570312 -38.59765625 40.16015625 C-35.34918399 33.87862767 -31.55678521 28.39470645 -27 23 C-26.03320312 21.81470703 -26.03320312 21.81470703 -25.046875 20.60546875 C-18.72108071 13.16680324 -9.40293767 3.44272317 0 0 Z " fill="#254491" transform="translate(391,363)"/>
<path d="M0 0 C2.63203313 2.31221799 5.18343997 4.68875758 7.71923828 7.10693359 C9.7722449 9.06415452 11.85126318 10.89359195 14.04345703 12.68896484 C45.29091073 39.11226813 63.4401647 84.48930224 66.89501953 124.40380859 C66.95077148 125.10876465 67.00652344 125.8137207 67.06396484 126.54003906 C67.2087899 128.24109828 67.41373808 129.93683365 67.62939453 131.63037109 C68.67714544 144.61886941 60.14536264 159.89529694 53.23095703 170.50146484 C51.56298828 172.28271484 51.56298828 172.28271484 50.23095703 173.50146484 C50.16374822 169.67056259 50.13008775 166.15014043 50.7199707 162.35668945 C51.25057819 158.35342962 51.4438529 154.41504587 51.50439453 150.38427734 C51.52311867 149.23492958 51.52311867 149.23492958 51.54222107 148.06236267 C51.78022719 129.92323112 51.13580097 113.09833222 46.23095703 95.50146484 C46.03872559 94.78104004 45.84649414 94.06061523 45.6484375 93.31835938 C34.51045668 52.53881745 4.47518954 17.40768283 -31.76904297 -3.31103516 C-72.07267909 -25.51219065 -117.53576865 -31.79872707 -162.01123047 -19.26416016 C-205.02218002 -6.47204827 -242.06406324 22.51962724 -263.57788086 62.03466797 C-273.20222039 80.26615261 -279.5046144 98.82117079 -281.64404297 119.37646484 C-282.3865691 125.60838061 -284.26354918 130.09723899 -287.24951172 135.56787109 C-292.8385562 146.35803153 -294.11344893 158.62383186 -295.76904297 170.50146484 C-296.09904297 170.50146484 -296.42904297 170.50146484 -296.76904297 170.50146484 C-297.6003942 164.67659163 -297.94184238 159.01069656 -297.97216797 153.13037109 C-297.97786804 152.24977524 -297.98356812 151.36917938 -297.98944092 150.4618988 C-297.99884001 148.6037616 -298.0054045 146.74560811 -298.00927734 144.88745117 C-298.01890838 142.1028774 -298.04994975 139.31906678 -298.08154297 136.53466797 C-298.14861639 125.16230606 -297.20920098 114.62267425 -294.76904297 103.50146484 C-294.61944626 102.81355362 -294.46984955 102.1256424 -294.3157196 101.41688538 C-289.12513366 77.72384274 -279.1619376 55.07580154 -264.76904297 35.50146484 C-263.645625 33.93525391 -263.645625 33.93525391 -262.49951172 32.33740234 C-250.51024362 16.08906921 -235.56815474 1.6921572 -218.76904297 -9.49853516 C-218.17236816 -9.89685547 -217.57569336 -10.29517578 -216.9609375 -10.70556641 C-197.39937308 -23.52860343 -176.12462399 -31.96007904 -153.36914062 -36.93017578 C-151.76254486 -37.28136404 -150.15762101 -37.64043145 -148.55566406 -38.01220703 C-98.55509532 -49.45854953 -38.77371969 -32.84475455 0 0 Z " fill="#24458C" transform="translate(627.76904296875,272.49853515625)"/>
<path d="M0 0 C0.66926514 0.03448242 1.33853027 0.06896484 2.02807617 0.10449219 C9.67725887 0.62141809 14.98484385 1.94001029 20.17578125 7.57421875 C28.35056216 17.74101524 31.5400205 27.73191538 30.875 40.6875 C29.946875 39.841875 29.01875 38.99625 28.0625 38.125 C23.34001632 34.09081354 18.24176502 30.79912364 12.875 27.6875 C12.25238281 27.32140625 11.62976563 26.9553125 10.98828125 26.578125 C3.28831006 22.90982412 -7.51384508 23.47920185 -15.61328125 25.6015625 C-27.24175691 30.1820294 -35.20323808 37.12672177 -40.44921875 48.578125 C-45.55848216 62.2745364 -43.18121681 75.9437618 -37.6875 89.140625 C-30.57211398 103.30297987 -20.44140544 113.38871324 -7.125 121.6875 C-6.02027344 122.39648438 -4.91554688 123.10546875 -3.77734375 123.8359375 C23.81709109 140.52424447 59.35384133 140.91544187 89.875 133.6875 C96.5069218 131.98241222 103.08480485 130.13365781 109.18359375 126.97265625 C110.07175781 126.54855469 110.95992187 126.12445313 111.875 125.6875 C112.535 126.0175 113.195 126.3475 113.875 126.6875 C105.2459784 133.01420131 96.4897897 138.87519567 86.1640625 141.9765625 C83.63763242 142.76122167 81.21248189 143.72139354 78.75 144.6875 C51.03712087 154.62882368 20.63865617 147.7282264 -5.41503906 135.62353516 C-28.84907703 124.27784782 -51.19241148 106.48058915 -60.31640625 81.2578125 C-65.98129425 63.25058399 -65.91270426 46.4866744 -57.8125 29.1875 C-51.26999535 18.12834239 -40.57470351 7.40382941 -28.125 3.6875 C-27.19945312 3.3884375 -26.27390625 3.089375 -25.3203125 2.78125 C-16.72265727 0.2090983 -8.94971899 -0.4870317 0 0 Z " fill="#268AC2" transform="translate(463.125,362.3125)"/>
<path d="M0 0 C5.671875 -0.0825 11.34375 -0.165 17.1875 -0.25 C18.94860107 -0.28641602 20.70970215 -0.32283203 22.52416992 -0.36035156 C32.97652605 -0.48564384 44.02672699 -0.21525572 52.6875 6.5 C56.45663206 10.57473736 57.46243454 13.1450066 57.32421875 18.84375 C56.52450627 24.16231976 53.39546169 28.92544598 50 33 C51.093125 33.721875 52.18625 34.44375 53.3125 35.1875 C56.51047506 37.52448177 58.59082355 39.18693431 60 43 C60.67625062 49.2196008 60.75029105 54.74959253 57 60 C49.08329318 67.57250218 41.13216167 68.16194915 30.6640625 68.09765625 C29.88377686 68.09664917 29.10349121 68.09564209 28.29956055 68.09460449 C25.40802524 68.08940541 22.51651101 68.07544433 19.625 68.0625 C13.14875 68.041875 6.6725 68.02125 0 68 C0 45.56 0 23.12 0 0 Z " fill="#233F89" transform="translate(274,645)"/>
<path d="M0 0 C4.95 0 9.9 0 15 0 C15 43.89 15 87.78 15 133 C5.43 133.33 -4.14 133.66 -14 134 C-41.47400078 136.77515159 -68.11370909 142.08162623 -93.20483398 153.95458984 C-94.77949733 154.68953034 -96.38744206 155.35242059 -98 156 C-98.66 155.67 -99.32 155.34 -100 155 C-75.62737641 134.46964883 -48.37541395 122.91446183 -17 118 C-16.31454102 117.89252441 -15.62908203 117.78504883 -14.92285156 117.67431641 C-9.82117558 116.95252373 -5.27122661 117 0 117 C0 78.39 0 39.78 0 0 Z " fill="#2B8AC0" transform="translate(620,313)"/>
<path d="M0 0 C4.62 0 9.24 0 14 0 C16.85244257 6.94535133 19.37429816 13.92130825 21.6875 21.0625 C22.29283753 22.92927464 22.90076566 24.79521191 23.51171875 26.66015625 C23.77428467 27.47105713 24.03685059 28.28195801 24.30737305 29.11743164 C24.84498284 30.98480351 24.84498284 30.98480351 26 32 C29.96 21.44 33.92 10.88 38 0 C42.29 0 46.58 0 51 0 C53.82694507 6.91100508 56.39663732 13.8521613 58.75 20.9375 C59.06582031 21.86884766 59.38164063 22.80019531 59.70703125 23.75976562 C60.15369141 25.0987793 60.15369141 25.0987793 60.609375 26.46484375 C60.87717773 27.265271 61.14498047 28.06569824 61.42089844 28.89038086 C62 31 62 31 62 34 C62.66 34 63.32 34 64 34 C64.36738281 32.17662109 64.36738281 32.17662109 64.7421875 30.31640625 C66.13180125 24.06314437 68.1378625 18.02179203 70.125 11.9375 C70.49753906 10.78572266 70.87007812 9.63394531 71.25390625 8.44726562 C72.16561347 5.63032408 73.08229896 2.81499459 74 0 C78.62 0 83.24 0 88 0 C85.46654777 8.88978398 82.40743634 17.57579915 79.3293457 26.2878418 C78.43374097 28.82314115 77.54179683 31.35970615 76.65039062 33.89648438 C76.07833743 35.52090816 75.50607908 37.14525971 74.93359375 38.76953125 C74.66896835 39.52168411 74.40434296 40.27383698 74.13169861 41.04878235 C73.88126297 41.7568956 73.63082733 42.46500885 73.37280273 43.19458008 C73.04662209 44.11863396 73.04662209 44.11863396 72.71385193 45.06135559 C71.85570204 47.39187741 70.92234732 49.6941317 70 52 C65.38 52 60.76 52 56 52 C52.81771801 44.36252323 50.07247705 36.60077182 47.37475586 28.78222656 C47.08221924 27.9362793 46.78968262 27.09033203 46.48828125 26.21875 C46.22571533 25.45498047 45.96314941 24.69121094 45.69262695 23.90429688 C45.02364957 21.9518387 45.02364957 21.9518387 44 20 C38.555 35.84 38.555 35.84 33 52 C28.05 52 23.1 52 18 52 C15.43247765 44.91731054 12.86908724 37.83314496 10.30957031 30.74755859 C9.43766817 28.33568613 8.56462411 25.92422616 7.69042969 23.51318359 C6.4364696 20.05413044 5.18657954 16.59363054 3.9375 13.1328125 C3.54377197 12.04944611 3.15004395 10.96607971 2.74438477 9.84988403 C2.38401123 8.8489975 2.0236377 7.84811096 1.65234375 6.81689453 C1.33257568 5.93309113 1.01280762 5.04928772 0.68334961 4.13870239 C0 2 0 2 0 0 Z " fill="#23458E" transform="translate(495,661)"/>
<path d="M0 0 C0.68191406 -0.01611328 1.36382812 -0.03222656 2.06640625 -0.04882812 C9.48787977 -0.0558962 15.04218652 2.61095418 20.55078125 7.5625 C26.65868652 14.35242943 27.125 21.34704661 27.125 30.3125 C14.255 30.3125 1.385 30.3125 -11.875 30.3125 C-8.19610767 37.45831525 -8.19610767 37.45831525 -1.875 40.3125 C4.17441721 41.00669542 7.74006435 39.91284228 13.046875 36.9921875 C15.125 36.3125 15.125 36.3125 17.25 37.03125 C19.75638024 38.74394316 21.33492488 40.88311234 23.125 43.3125 C21.27105013 47.83150281 18.76661326 49.29418682 14.4375 51.3203125 C5.95382226 53.86141409 -4.49011086 53.96000247 -12.625 50.25 C-18.95924899 46.39057807 -23.04408562 41.12766425 -25.875 34.3125 C-26.33317436 31.50965438 -26.40008488 28.77397299 -26.375 25.9375 C-26.36533203 24.80368896 -26.36533203 24.80368896 -26.35546875 23.64697266 C-26.11382914 16.3008107 -24.0634837 12.52669728 -18.9375 7.359375 C-12.93668019 1.767702 -8.25322795 -0.03856649 0 0 Z " fill="#20438D" transform="translate(463.875,660.6875)"/>
<path d="M0 0 C1.12716431 -0.01498535 1.12716431 -0.01498535 2.27709961 -0.03027344 C8.38611067 0.06333076 14.06662655 1.14959731 18.8984375 5.0859375 C19.56746094 5.94058594 19.56746094 5.94058594 20.25 6.8125 C20.71148438 7.37710938 21.17296875 7.94171875 21.6484375 8.5234375 C24.87814937 13.56343373 25.14760836 18.15247356 25.0703125 24.01953125 C25.0674826 24.83371017 25.06465271 25.6478891 25.06173706 26.48674011 C25.05058584 29.074646 25.02549083 31.66219958 25 34.25 C24.98996365 36.00976061 24.98083894 37.76952667 24.97265625 39.52929688 C24.9506631 43.83216598 24.91616836 48.13477336 24.875 52.4375 C20.255 52.4375 15.635 52.4375 10.875 52.4375 C10.38 50.4575 10.38 50.4575 9.875 48.4375 C8.84375 49.0975 7.8125 49.7575 6.75 50.4375 C0.82783121 53.4091597 -5.65957346 53.27005493 -12.125 52.4375 C-17.42305957 50.23260006 -20.53610833 47.61528334 -23.125 42.4375 C-23.6591019 37.5692925 -23.62887512 33.57121903 -21.625 29.0625 C-17.08442598 24.29489728 -12.3517036 22.21647936 -5.75 22.046875 C-3.87459757 22.0731044 -1.99938092 22.12028082 -0.125 22.1875 C1.32326172 22.21457031 1.32326172 22.21457031 2.80078125 22.2421875 C5.15992033 22.28890313 7.51691075 22.35437863 9.875 22.4375 C9.00572796 17.67530249 9.00572796 17.67530249 6.14453125 14.01953125 C-1.41409673 12.08108793 -9.32737836 12.64347862 -16.125 16.4375 C-16.82726141 15.19573305 -17.51129109 13.94364401 -18.1875 12.6875 C-18.57035156 11.99140625 -18.95320312 11.2953125 -19.34765625 10.578125 C-20.28541927 7.99574243 -20.27549387 6.92505432 -19.125 4.4375 C-13.63217152 0.23022712 -6.63438878 0.05179389 0 0 Z " fill="#23428C" transform="translate(611.125,660.5625)"/>
<path d="M0 0 C5.67557472 3.37285838 8.89474643 7.9722086 11.75 13.8125 C12.66084259 18.45779718 12.375 23.26624672 12.375 28 C-0.165 28 -12.705 28 -25.625 28 C-23.00980407 33.72027392 -23.00980407 33.72027392 -18.625 37 C-11.69589824 39.30970059 -6.93984621 37.9145444 -0.625 35 C3.375 35 3.375 35 5.078125 36.2421875 C5.58859375 36.78101563 6.0990625 37.31984375 6.625 37.875 C7.14578125 38.40867187 7.6665625 38.94234375 8.203125 39.4921875 C9.375 41 9.375 41 9.375 43 C7.546875 44.47265625 7.546875 44.47265625 5.125 46.0625 C3.94164062 46.85333984 3.94164062 46.85333984 2.734375 47.66015625 C-2.08591817 50.39750817 -6.96420045 50.24619118 -12.375 50.3125 C-13.1484375 50.34150391 -13.921875 50.37050781 -14.71875 50.40039062 C-21.57205991 50.4751331 -26.292939 48.40915202 -31.796875 44.4296875 C-37.4347839 38.87550992 -40.72731361 32.44007508 -41.0625 24.4375 C-40.5549315 15.42815907 -37.16575807 9.13803624 -30.625 3 C-22.43287306 -3.57651026 -9.55700798 -4.34807386 0 0 Z " fill="#213D89" transform="translate(742.625,663)"/>
<path d="M0 0 C4.95 0 9.9 0 15 0 C15.03738281 2.32417969 15.07476562 4.64835938 15.11328125 7.04296875 C15.1595442 9.30356041 15.21076028 11.5639896 15.26245117 13.82446289 C15.29562532 15.39076801 15.32368058 16.95719051 15.34643555 18.52368164 C15.38012116 20.78061763 15.43244049 23.03648526 15.48828125 25.29296875 C15.49467117 25.98899704 15.5010611 26.68502533 15.50764465 27.40214539 C15.63766808 31.73955629 16.35102356 34.53988871 19 38 C22.06429776 39.53214888 24.6165642 39.22938548 28 39 C31.46669217 37.66059621 32.69817972 36.50770746 34.59765625 33.3125 C37.06666057 27.26069607 36.57936253 20.4970682 36.6875 14.0625 C36.72072013 12.69723375 36.75521404 11.33199787 36.79101562 9.96679688 C36.87318474 6.64481707 36.93827658 3.32242258 37 0 C41.62 0 46.24 0 51 0 C51 17.16 51 34.32 51 52 C46.38 52 41.76 52 37 52 C36.67 50.35 36.34 48.7 36 47 C35.071875 47.639375 34.14375 48.27875 33.1875 48.9375 C26.91003066 52.99939193 20.28217348 52.83869994 13 52 C6.95431083 49.41558326 3.65351821 44.83774006 1 39 C-0.14339473 34.71002828 -0.12934698 30.48219827 -0.09765625 26.07421875 C-0.0962413 25.32662796 -0.09482635 24.57903717 -0.09336853 23.80879211 C-0.08779764 21.43498635 -0.0752506 19.06127697 -0.0625 16.6875 C-0.05748123 15.07226699 -0.05291899 13.4570325 -0.04882812 11.84179688 C-0.03869117 7.89446478 -0.0191103 3.94733953 0 0 Z " fill="#23448D" transform="translate(375,661)"/>
<path d="M0 0 C5.28 0 10.56 0 16 0 C16.77085937 1.96324219 17.54171875 3.92648437 18.3359375 5.94921875 C19.08720186 7.86223813 19.83852024 9.77523628 20.58984375 11.68823242 C21.10975697 13.01210348 21.62961451 14.33599641 22.14941406 15.65991211 C22.89894006 17.568906 23.64866989 19.47781974 24.3984375 21.38671875 C25.07398682 23.10701294 25.07398682 23.10701294 25.76318359 24.86206055 C26.83373089 27.57815694 27.91268239 30.29058204 29 33 C31.03494688 29.94757968 32.35265654 27.02682947 33.78515625 23.65234375 C34.04630722 23.03984268 34.30745819 22.42734161 34.57652283 21.79627991 C35.40804472 19.84455665 36.23541048 17.89110517 37.0625 15.9375 C37.89399449 13.98068907 38.72633615 12.02424164 39.55918884 10.06800842 C40.31317202 8.29589333 41.06496394 6.52284639 41.81665039 4.74975586 C42.5054607 3.14916363 43.22072404 1.55855193 44 0 C48.62 0 53.24 0 58 0 C55.9202237 6.50760774 53.51098146 12.76086127 50.8046875 19.03125 C50.21531906 20.40694153 50.21531906 20.40694153 49.61404419 21.8104248 C48.79049773 23.73048375 47.96518781 25.64978721 47.13818359 27.56835938 C45.86743268 30.5175625 44.60325212 33.46952002 43.33984375 36.421875 C42.53684237 38.29183163 41.73347042 40.16162918 40.9296875 42.03125 C40.55053192 42.91655396 40.17137634 43.80185791 39.7807312 44.71398926 C39.43011627 45.52573608 39.07950134 46.33748291 38.71826172 47.17382812 C38.40976288 47.89058716 38.10126404 48.60734619 37.78341675 49.3458252 C37 51 37 51 36 52 C32.40500204 52.11109388 28.82115727 52.06145187 25.22485352 52.02905273 C24.16065186 52.01946533 23.0964502 52.00987793 22 52 C17.19389757 41.95976605 12.74867137 31.81349359 8.54541016 21.50683594 C7.60818049 19.20875873 6.66583754 16.91282773 5.72265625 14.6171875 C5.11950478 13.14595091 4.51662931 11.67460114 3.9140625 10.203125 C3.63495026 9.52195618 3.35583801 8.84078735 3.06826782 8.13897705 C1.96948577 5.44315753 0.92092574 2.76277721 0 0 Z " fill="#22428D" transform="translate(642,661)"/>
<path d="M0 0 C4.95 0 9.9 0 15 0 C15 23.76 15 47.52 15 72 C10.05 72 5.1 72 0 72 C0 48.24 0 24.48 0 0 Z " fill="#2B4A90" transform="translate(346,641)"/>
<path d="M0 0 C2.97 -0.0825 5.94 -0.165 9 -0.25 C10.37865234 -0.30462402 10.37865234 -0.30462402 11.78515625 -0.36035156 C17.71773606 -0.43921519 22.07549267 0.61514286 27 4 C30.37581048 7.34767873 32.27781827 11.29485048 32.5 16.0625 C31.80527868 21.53343036 30.62811454 25.41473058 26.625 29.3125 C20.74929833 33.08973679 15.99835996 33.25603383 9.1875 33.125 C6.155625 33.08375 3.12375 33.0425 0 33 C0 22.11 0 11.22 0 0 Z " fill="#309ECF" transform="translate(496,732)"/>
<path d="M0 0 C7.8212587 1.21534303 15.19153749 3.09563884 22.6875 5.625 C24.25842407 6.15504639 24.25842407 6.15504639 25.86108398 6.69580078 C44.14302834 13.02994606 60.04900617 22.76368527 75 35 C74.01 35.495 74.01 35.495 73 36 C70.13972278 34.88076109 67.36182667 33.69432363 64.5625 32.4375 C46.80840809 24.75201512 27.34520955 18.33940174 7.9765625 16.62109375 C5 16 5 16 3.4765625 14.1796875 C3.19554687 13.41914063 2.91453125 12.65859375 2.625 11.875 C2.32335937 11.06933594 2.02171875 10.26367188 1.7109375 9.43359375 C0.78439199 6.26195719 0.28010504 3.29123427 0 0 Z " fill="#2C5C9D" transform="translate(430,433)"/>
<path d="M0 0 C5 0 5 0 6.58984375 1.58203125 C7.03457031 2.31808594 7.47929688 3.05414062 7.9375 3.8125 C8.43507813 4.62332031 8.93265625 5.43414063 9.4453125 6.26953125 C11.61962402 10.08823414 13.74544011 13.92839075 15.80078125 17.8125 C16.81930847 19.91268432 16.81930847 19.91268432 18 21 C21.63 14.07 25.26 7.14 29 0 C30.98 0 32.96 0 35 0 C35 10.89 35 21.78 35 33 C33.35 33 31.7 33 30 33 C29.67 26.07 29.34 19.14 29 12 C28.0925 13.85625 27.185 15.7125 26.25 17.625 C24.07600088 21.98330155 21.84909176 26.05510372 19 30 C16.45044531 29.64014588 15.31464588 29.41142769 13.71972656 27.32592773 C13.18557129 26.26547241 13.18557129 26.26547241 12.640625 25.18359375 C12.28516602 24.49579834 11.92970703 23.80800293 11.56347656 23.09936523 C11.1300293 22.22094971 10.69658203 21.34253418 10.25 20.4375 C8.14625 16.2609375 8.14625 16.2609375 6 12 C5.67 18.93 5.34 25.86 5 33 C3.35 33 1.7 33 0 33 C0 22.11 0 11.22 0 0 Z " fill="#2499CE" transform="translate(596,732)"/>
<path d="M0 0 C4.95 0 9.9 0 15 0 C15 11.22 15 22.44 15 34 C2 39 2 39 0 39 C0 26.13 0 13.26 0 0 Z " fill="#2D90C7" transform="translate(389,313)"/>
<path d="M0 0 C1.4540625 0.0309375 1.4540625 0.0309375 2.9375 0.0625 C3.36160156 0.97128906 3.78570312 1.88007812 4.22265625 2.81640625 C4.50294678 3.41678711 4.7832373 4.01716797 5.07202148 4.63574219 C5.69597812 5.97328459 6.31917535 7.3111815 6.94165039 8.64941406 C8.59725797 12.20587363 10.26512096 15.75548555 11.9609375 19.29296875 C12.2818335 19.96706787 12.60272949 20.64116699 12.93334961 21.33569336 C13.55193628 22.63429234 14.17501497 23.93076289 14.80297852 25.22485352 C16.13997058 28.04372008 16.9375 29.89869796 16.9375 33.0625 C14.9575 33.0625 12.9775 33.0625 10.9375 33.0625 C9.68085022 30.15649739 8.9375 28.26645416 8.9375 25.0625 C0.5225 25.5575 0.5225 25.5575 -8.0625 26.0625 C-9.0525 28.3725 -10.0425 30.6825 -11.0625 33.0625 C-13.0425 33.0625 -15.0225 33.0625 -17.0625 33.0625 C-14.79267099 25.84714951 -11.98131005 18.98343985 -8.9375 12.0625 C-8.48246094 11.01449219 -8.02742188 9.96648438 -7.55859375 8.88671875 C-3.70732671 0.07565973 -3.70732671 0.07565973 0 0 Z " fill="#2A9ACE" transform="translate(362.0625,731.9375)"/>
<path d="M0 0 C1.4540625 0.0309375 1.4540625 0.0309375 2.9375 0.0625 C4.7120064 4.06088032 6.48143665 8.06148782 8.25 12.0625 C8.99926758 13.75052734 8.99926758 13.75052734 9.76367188 15.47265625 C12.32926735 21.28347514 14.79069075 27.08367286 16.9375 33.0625 C14.9575 33.0625 12.9775 33.0625 10.9375 33.0625 C7.9375 27.3125 7.9375 27.3125 7.9375 25.0625 C2.3275 25.0625 -3.2825 25.0625 -9.0625 25.0625 C-9.7225 27.3725 -10.3825 29.6825 -11.0625 32.0625 C-12.0625 33.0625 -12.0625 33.0625 -14.625 33.125 C-15.429375 33.104375 -16.23375 33.08375 -17.0625 33.0625 C-16.41252111 28.94660425 -15.07283492 25.50097227 -13.375 21.703125 C-12.84132813 20.50558594 -12.30765625 19.30804687 -11.7578125 18.07421875 C-11.47969727 17.45724121 -11.20158203 16.84026367 -10.91503906 16.20458984 C-10.05997386 14.30689359 -9.21299356 12.40574479 -8.3671875 10.50390625 C-3.69977358 0.07550558 -3.69977358 0.07550558 0 0 Z " fill="#299ACF" transform="translate(460.0625,731.9375)"/>
<path d="M0 0 C3.54213083 -0.08118636 7.08238743 -0.14059277 10.625 -0.1875 C11.62402344 -0.21263672 12.62304688 -0.23777344 13.65234375 -0.26367188 C19.16749448 -0.31845814 23.30403164 -0.2598227 28 3 C30.32749345 6.49124017 30.50299316 7.89222251 30 12 C27.76793569 14.84780619 26.45007001 15.84997666 23 17 C21.22686149 17.08209792 19.45079225 17.10746294 17.67578125 17.09765625 C16.64775391 17.09443359 15.61972656 17.09121094 14.56054688 17.08789062 C13.48869141 17.07951172 12.41683594 17.07113281 11.3125 17.0625 C10.22904297 17.05798828 9.14558594 17.05347656 8.02929688 17.04882812 C5.35284106 17.03703757 2.67641361 17.01910208 0 17 C0 11.39 0 5.78 0 0 Z " fill="#ECEEF2" transform="translate(289,684)"/>
<path d="M0 0 C7.92 0 15.84 0 24 0 C24 1.65 24 3.3 24 5 C18.06 5 12.12 5 6 5 C6 7.97 6 10.94 6 14 C11.28 14 16.56 14 22 14 C22 15.65 22 17.3 22 19 C16.72 19 11.44 19 6 19 C6 21.97 6 24.94 6 28 C12.27 28 18.54 28 25 28 C25 29.65 25 31.3 25 33 C16.75 33 8.5 33 0 33 C0 22.11 0 11.22 0 0 Z " fill="#329FD1" transform="translate(549,732)"/>
<path d="M0 0 C1.81403189 2.72104784 2.69396378 4.82731654 3.75 7.875 C5.71242323 12.86100864 7.49157071 15.11460525 12 18 C15.21265916 19.32350658 15.21265916 19.32350658 18 20 C16.00295012 21.99704988 14.66090763 22.68808813 12.125 23.8125 C7.5010281 26.07422539 5.12040025 28.7591995 2.8125 33.375 C1.82699922 36.55892561 1.38886496 39.69464781 1 43 C-1.66697546 40.33302454 -1.70527817 38.01544813 -2.33984375 34.38671875 C-3.55128239 30.00690212 -5.00958426 27.61122043 -8.91796875 25.19921875 C-9.99691406 24.70035156 -11.07585937 24.20148438 -12.1875 23.6875 C-13.81751953 22.91986328 -13.81751953 22.91986328 -15.48046875 22.13671875 C-16.31191406 21.76160156 -17.14335937 21.38648438 -18 21 C-15.63019873 19.42013249 -13.63089136 18.37397933 -11.0625 17.25 C-5.27069451 14.35409726 -3.27708884 10.0754866 -1.25 4.125 C-0.82429237 2.7527722 -0.40440573 1.37865591 0 0 Z " fill="#34AAD8" transform="translate(512,281)"/>
<path d="M0 0 C13.53846154 0 13.53846154 0 18.875 4.625 C20.65925736 8.39176554 20.76903725 11.92198594 20 16 C18.06658451 19.57052209 15.91644101 21.69451966 12 23 C7.99616868 23.13399703 4.0072645 23.04308887 0 23 C0 15.41 0 7.82 0 0 Z " fill="#EFF5F6" transform="translate(502,737)"/>
<path d="M0 0 C3.20924709 -0.10837983 6.4148027 -0.18749268 9.625 -0.25 C10.98044922 -0.30027344 10.98044922 -0.30027344 12.36328125 -0.3515625 C18.19230794 -0.43665778 21.66623413 -0.06423543 26 4 C27.01096147 6.97576793 26.45957347 8.7829857 26 12 C24.18836733 14.67431489 23.12238923 14.95920359 20 16 C18.44578271 16.08106686 16.88832973 16.10756898 15.33203125 16.09765625 C14.43935547 16.09443359 13.54667969 16.09121094 12.62695312 16.08789062 C11.23379883 16.07532227 11.23379883 16.07532227 9.8125 16.0625 C8.87212891 16.05798828 7.93175781 16.05347656 6.96289062 16.04882812 C4.64189992 16.03704645 2.32094193 16.01911114 0 16 C0 10.72 0 5.44 0 0 Z " fill="#ECF0F2" transform="translate(289,657)"/>
<path d="M0 0 C1.9140625 1.1015625 1.9140625 1.1015625 4.7265625 3.1015625 C4.0665625 4.4215625 3.4065625 5.7415625 2.7265625 7.1015625 C1.4890625 6.6065625 1.4890625 6.6065625 0.2265625 6.1015625 C-4.77262157 4.67322419 -9.02731273 4.56444571 -14.1484375 5.7890625 C-17.02283507 7.5644257 -17.47529948 8.83645244 -18.2734375 12.1015625 C-18.72078792 17.11188716 -18.37300394 20.083606 -15.2734375 24.1015625 C-11.21661488 26.80611091 -8.03132866 26.52232838 -3.2734375 26.1015625 C0.14128174 25.21696222 0.14128174 25.21696222 2.7265625 24.1015625 C3.3865625 25.4215625 4.0465625 26.7415625 4.7265625 28.1015625 C-0.15871055 32.56809786 -4.63065254 32.76591913 -11.13671875 32.55078125 C-16.97616326 31.71449717 -19.75462048 29.1103205 -23.2109375 24.5390625 C-24.82677351 19.31135777 -25.27777765 14.50519539 -24.2734375 9.1015625 C-19.12025924 0.1468593 -9.97819526 -3.94327304 0 0 Z " fill="#2B97CB" transform="translate(420.2734375,732.8984375)"/>
<path d="M0 0 C3.19140625 -0.46875 3.19140625 -0.46875 7 0 C9.20810837 2.18459365 10.51725024 4.75830047 11.9375 7.5 C12.33517578 8.21542969 12.73285156 8.93085937 13.14257812 9.66796875 C14.11886575 11.43234397 15.06267567 13.21462033 16 15 C19.42042998 10.91755131 21.87646205 6.71204316 24.33984375 2.01171875 C26 0 26 0 28.69140625 -0.29296875 C29.45324219 -0.19628906 30.21507812 -0.09960938 31 0 C29.79872465 4.29308241 28.1027346 7.58542182 25.67358398 11.25366211 C20.93279289 18.43086213 18.58912461 24.17439659 19 33 C17.02 33 15.04 33 13 33 C13.06703125 32.28199219 13.1340625 31.56398438 13.203125 30.82421875 C13.37438807 19.3638647 7.46007001 11.74372589 1.08569336 2.65136719 C0 1 0 1 0 0 Z " fill="#2B99CC" transform="translate(650,732)"/>
<path d="M0 0 C3.36345335 1.68172668 5.2966206 2.9449309 7.375 6.0625 C8 8 8 8 8 11 C-0.25 11 -8.5 11 -17 11 C-15.79828634 3.78971802 -15.79828634 3.78971802 -11.94140625 0.91796875 C-8.05962622 -0.91748056 -4.1579707 -0.73574482 0 0 Z " fill="#E9EDF0" transform="translate(734,672)"/>
<path d="M0 0 C4.25676762 0.0546518 6.94723214 0.34756764 10.25 3.25 C12.3977418 6.21240248 13.25 7.56446856 13.25 11.25 C5 11.25 -3.25 11.25 -11.75 11.25 C-10.66829788 5.8414894 -9.68053096 4.78747787 -5.75 1.25 C-4.11069007 -0.38930993 -2.25256326 0.03998633 0 0 Z " fill="#EFF2F6" transform="translate(463.75,671.75)"/>
<path d="M0 0 C0.69738281 0.01353516 1.39476562 0.02707031 2.11328125 0.04101562 C3.82585541 0.0762055 5.53802941 0.13000845 7.25 0.1875 C7.484375 6.890625 7.484375 6.890625 5.375 9.5625 C2.17754723 12.00761094 0.29483999 12.36732661 -3.6875 12.4375 C-4.56277344 12.46328125 -5.43804688 12.4890625 -6.33984375 12.515625 C-8.75 12.1875 -8.75 12.1875 -10.5390625 10.859375 C-12.43463175 8.24226648 -12.20605018 6.31470121 -11.75 3.1875 C-8.37776787 -0.47500021 -4.65389721 -0.17155198 0 0 Z " fill="#EFF1F4" transform="translate(613.75,690.8125)"/>
<path d="M0 0 C1.65 0 3.3 0 5 0 C7.57514869 3.1319376 9 4.89410579 9 9 C7.68 9.33 6.36 9.66 5 10 C5 17.59 5 25.18 5 33 C3.35 33 1.7 33 0 33 C0 22.11 0 11.22 0 0 Z " fill="#2094CA" transform="translate(596,732)"/>
<path d="M0 0 C1.17374173 2.43431639 2.33915763 4.87204182 3.5 7.3125 C3.83386719 8.00279297 4.16773438 8.69308594 4.51171875 9.40429688 C7 14.66015625 7 14.66015625 7 18 C5.02 18 3.04 18 1 18 C-0.25664978 15.09399739 -1 13.20395416 -1 10 C-6.61 10 -12.22 10 -18 10 C-17.01 9.34 -16.02 8.68 -15 8 C-15.33 7.34 -15.66 6.68 -16 6 C-12.04 6 -8.08 6 -4 6 C-4.33 4.35 -4.66 2.7 -5 1 C-3 0 -3 0 0 0 Z " fill="#2998CF" transform="translate(372,747)"/>
<path d="M0 0 C0.66 0.33 1.32 0.66 2 1 C-15.73076923 14 -15.73076923 14 -22 14 C-22.66 13.01 -23.32 12.02 -24 11 C-28.455 11.495 -28.455 11.495 -33 12 C-32.67 11.34 -32.34 10.68 -32 10 C-30.13330078 9.39331055 -30.13330078 9.39331055 -27.6953125 8.88671875 C-26.80626221 8.69287598 -25.91721191 8.4990332 -25.0012207 8.29931641 C-24.05206787 8.09741699 -23.10291504 7.89551758 -22.125 7.6875 C-14.88061346 6.07763633 -8.43528693 4.32118953 -1.86328125 0.8203125 C-1.24839844 0.54960937 -0.63351562 0.27890625 0 0 Z " fill="#3EBAE4" transform="translate(575,488)"/>
<path d="M0 0 C3.05001831 3.66002197 7 9.07851471 7 14 C2.71 14 -1.58 14 -6 14 C-4.67567165 10.68917912 -3.33019826 7.43744277 -1.875 4.1875 C-1.52179688 3.39730469 -1.16859375 2.60710938 -0.8046875 1.79296875 C-0.53914063 1.20128906 -0.27359375 0.60960937 0 0 Z " fill="#D9EBF1" transform="translate(459,739)"/>
<path d="M0 0 C0.66 0 1.32 0 2 0 C2.83764268 1.95649397 3.66999059 3.91525556 4.5 5.875 C4.9640625 6.96554687 5.428125 8.05609375 5.90625 9.1796875 C7 12 7 12 7 14 C3.04 14 -0.92 14 -5 14 C-1.85714286 4.42857143 -1.85714286 4.42857143 0 0 Z " fill="#D6E8EE" transform="translate(361,739)"/>
<path d="M0 0 C0.74765625 0.10699219 1.4953125 0.21398437 2.265625 0.32421875 C0.82910395 5.23863287 -1.27597115 9.32660233 -3.859375 13.69921875 C-4.23191406 14.33988281 -4.60445312 14.98054687 -4.98828125 15.640625 C-5.89871502 17.20470352 -6.81585691 18.76487409 -7.734375 20.32421875 C-9.296875 18.63671875 -9.296875 18.63671875 -10.734375 16.32421875 C-10.54181092 12.12219551 -8.65835628 9.04207531 -6.484375 5.51171875 C-5.61039063 4.04798828 -5.61039063 4.04798828 -4.71875 2.5546875 C-2.734375 0.32421875 -2.734375 0.32421875 0 0 Z " fill="#34A1D1" transform="translate(678.734375,731.67578125)"/>
<path d="M0 0 C2.69738715 2.69738715 2.85313979 4.19943577 3 8 C2.00166803 10.66077486 0.57633538 12.97788547 -0.9375 15.375 C-1.32357422 16.01566406 -1.70964844 16.65632812 -2.10742188 17.31640625 C-3.05665598 18.88674415 -4.0263347 20.44469219 -5 22 C-5.99 21.67 -6.98 21.34 -8 21 C-6.70021649 13.20129894 -3.73353242 6.93873478 0 0 Z " fill="#31A3D4" transform="translate(621,739)"/>
<path d="M0 0 C5.94 0 11.88 0 18 0 C18 0.99 18 1.98 18 3 C12.06 3 6.12 3 0 3 C0 2.01 0 1.02 0 0 Z " fill="#2195CC" transform="translate(555,761)"/>
<path d="M0 0 C2.32472205 2.85306797 3.7508258 5.54074837 5 9 C3.68 10.32 2.36 11.64 1 13 C-0.65 9.7 -2.3 6.4 -4 3 C-2.68 2.67 -1.36 2.34 0 2 C0 1.34 0 0.68 0 0 Z " fill="#2FA1D2" transform="translate(605,739)"/>
<path d="M0 0 C3.83663072 1.34929464 6.65172569 3.07751025 9.8125 5.625 C10.99779297 6.57246094 10.99779297 6.57246094 12.20703125 7.5390625 C12.79871094 8.02117187 13.39039063 8.50328125 14 9 C13.01 9.495 13.01 9.495 12 10 C9.56442428 9.09176973 7.23804483 8.13171929 4.875 7.0625 C4.21628906 6.77181641 3.55757813 6.48113281 2.87890625 6.18164062 C1.24950495 5.46139802 -0.37566132 4.73158857 -2 4 C-1.34 2.68 -0.68 1.36 0 0 Z " fill="#3E71A6" transform="translate(491,459)"/>
<path d="M0 0 C0.66 0.33 1.32 0.66 2 1 C0.44210317 2.13136586 -1.12153857 3.25482321 -2.6875 4.375 C-3.55761719 5.00148438 -4.42773438 5.62796875 -5.32421875 6.2734375 C-7.83596952 7.89415843 -10.19299187 8.99858088 -13 10 C-13.66 8.68 -14.32 7.36 -15 6 C-14.08476563 5.65066406 -13.16953125 5.30132812 -12.2265625 4.94140625 C-11.03804687 4.48636719 -9.84953125 4.03132813 -8.625 3.5625 C-7.44164062 3.11003906 -6.25828125 2.65757812 -5.0390625 2.19140625 C-2.13963807 1.10728088 -2.13963807 1.10728088 0 0 Z " fill="#4FBDE3" transform="translate(575,488)"/>
<path d="M0 0 C0.33 0 0.66 0 1 0 C0.88512252 1.58409994 0.75765492 3.16728963 0.625 4.75 C0.55539062 5.63171875 0.48578125 6.5134375 0.4140625 7.421875 C0.00149945 9.99066382 -0.71160957 11.75841015 -2 14 C-2.33 13.01 -2.66 12.02 -3 11 C-4.32 12.32 -5.64 13.64 -7 15 C-5.63408831 11.45756548 -4.09068516 8.07372071 -2.375 4.6875 C-1.70597656 3.36298828 -1.70597656 3.36298828 -1.0234375 2.01171875 C-0.68570313 1.34785156 -0.34796875 0.68398438 0 0 Z " fill="#3DBDE4" transform="translate(693,440)"/>
<path d="M0 0 C0.99 0.33 1.98 0.66 3 1 C0.36 4.3 -2.28 7.6 -5 11 C-6.32 10.67 -7.64 10.34 -9 10 C-8.2575 9.278125 -7.515 8.55625 -6.75 7.8125 C-4.30709485 5.31407427 -2.1318953 2.76356798 0 0 Z " fill="#2982B8" transform="translate(660,524)"/>
<path d="M0 0 C0.33 0.66 0.66 1.32 1 2 C0.26821134 4.07196631 -0.55899003 6.1108552 -1.4375 8.125 C-1.91058594 9.22070312 -2.38367188 10.31640625 -2.87109375 11.4453125 C-3.24363281 12.28835938 -3.61617187 13.13140625 -4 14 C-4.33 13.01 -4.66 12.02 -5 11 C-5.66 11 -6.32 11 -7 11 C-5.22054913 6.95579349 -2.60470327 3.53921513 0 0 Z " fill="#2FAAD5" transform="translate(684,480)"/>
<path d="M0 0 C0.66 0.33 1.32 0.66 2 1 C2 1.99 2 2.98 2 4 C0.38007835 4.86375896 -1.24611861 5.71575854 -2.875 6.5625 C-4.23238281 7.27599609 -4.23238281 7.27599609 -5.6171875 8.00390625 C-6.40351562 8.33261719 -7.18984375 8.66132813 -8 9 C-8.66 8.67 -9.32 8.34 -10 8 C-6.7 5.36 -3.4 2.72 0 0 Z " fill="#2F64A2" transform="translate(530,460)"/>
<path d="M0 0 C5.71937959 1.85493392 11.35555275 3.93103891 17 6 C15.421875 7.2109375 15.421875 7.2109375 13 8 C10.5453777 6.98613427 8.50453746 5.97276745 6.25 4.625 C5.64800781 4.28210938 5.04601562 3.93921875 4.42578125 3.5859375 C2.94227881 2.73822182 1.46998513 1.87094495 0 1 C0 0.67 0 0.34 0 0 Z " fill="#C4D7E0" transform="translate(445,512)"/>
<path d="M0 0 C1.98 0.99 3.96 1.98 6 3 C5.01 4.32 4.02 5.64 3 7 C1.35 6.67 -0.3 6.34 -2 6 C-1.34 5.01 -0.68 4.02 0 3 C0 2.01 0 1.02 0 0 Z " fill="#3266A3" transform="translate(486,455)"/>
<path d="M0 0 C2.64 0 5.28 0 8 0 C7.34 0.66 6.68 1.32 6 2 C6.33 2.66 6.66 3.32 7 4 C4.03 4 1.06 4 -2 4 C-1.01 3.34 -0.02 2.68 1 2 C0.67 1.34 0.34 0.68 0 0 Z " fill="#148DC6" transform="translate(356,753)"/>
<path d="M0 0 C0.33 0 0.66 0 1 0 C3.20927172 5.97802937 2.93213141 10.73960391 2 17 C1.67 17 1.34 17 1 17 C0.1679418 11.27959989 -0.12036664 5.77759884 0 0 Z " fill="#4F5390" transform="translate(330,426)"/>
<path d="M0 0 C0.66 0.33 1.32 0.66 2 1 C1.24172908 2.17487036 0.46792245 3.33972592 -0.3125 4.5 C-0.74175781 5.1496875 -1.17101562 5.799375 -1.61328125 6.46875 C-2.07089844 6.9740625 -2.52851562 7.479375 -3 8 C-3.99 8 -4.98 8 -6 8 C-4.55746343 4.63408134 -2.66735273 2.48952921 0 0 Z " fill="#6AC0DE" transform="translate(531,281)"/>
<path d="M0 0 C0.33 0 0.66 0 1 0 C1 2.31 1 4.62 1 7 C-0.32 7.33 -1.64 7.66 -3 8 C-2.25 2.25 -2.25 2.25 0 0 Z " fill="#ECF3F5" transform="translate(624,746)"/>
<path d="M0 0 C1.32 0.33 2.64 0.66 4 1 C2.92598892 3.91517292 2.22189824 5.77810176 0 8 C0 5.36 0 2.72 0 0 Z " fill="#38498E" transform="translate(678,438)"/>
<path d="M0 0 C0.66 0.33 1.32 0.66 2 1 C-0.64 2.98 -3.28 4.96 -6 7 C-6.66 6.34 -7.32 5.68 -8 5 C-6.71475739 4.13619741 -5.42157581 3.28419631 -4.125 2.4375 C-3.04605469 1.72400391 -3.04605469 1.72400391 -1.9453125 0.99609375 C-1.30335938 0.66738281 -0.66140625 0.33867187 0 0 Z " fill="#38569B" transform="translate(391,363)"/>
<path d="M0 0 C2.88437779 1.29299694 4.87219421 2.65941363 7 5 C6.67 5.99 6.34 6.98 6 8 C4.9970458 6.85675161 3.99770973 5.71032809 3 4.5625 C2.443125 3.92441406 1.88625 3.28632813 1.3125 2.62890625 C0 1 0 1 0 0 Z " fill="#5AB7DD" transform="translate(491,281)"/>
<path d="M0 0 C0.33 0 0.66 0 1 0 C0.67 3.3 0.34 6.6 0 10 C-2 7 -2 7 -1.6875 3.875 C-1 1 -1 1 0 0 Z " fill="#5AC3E4" transform="translate(693,440)"/>
<path d="M0 0 C0.33 0 0.66 0 1 0 C0.67 3.3 0.34 6.6 0 10 C-0.66 9.67 -1.32 9.34 -2 9 C-2 7.35 -2 5.7 -2 4 C-1.34 4 -0.68 4 0 4 C0 2.68 0 1.36 0 0 Z " fill="#2E2F7A" transform="translate(333,423)"/>
</svg>
